<?xml version="1.0" encoding="UTF-8" standalone="no"?><!DOCTYPE svg PUBLIC "-//W3C//DTD SVG 1.1//EN" "http://www.w3.org/Graphics/SVG/1.1/DTD/svg11.dtd"><svg width="100%" height="100%" viewBox="0 0 138 138" version="1.1" xmlns="http://www.w3.org/2000/svg" xmlns:xlink="http://www.w3.org/1999/xlink" xml:space="preserve" style="fill-rule:evenodd;clip-rule:evenodd;stroke-linejoin:round;stroke-miterlimit:1.41421;"><path d="M89.695,27.075l32.274,-7.01l-9.938,31.629l25.458,17.237l-28.703,17.269l4.014,31.109l-30.468,-6.894l-19.795,27.125l-14.744,-27.075l-32.273,7.01l9.938,-31.628l-25.458,-17.237l28.704,-17.27l-4.015,-31.108l30.467,6.893l19.796,-27.125l14.743,27.075Z" style="fill:#fd0;fill-rule:nonzero;"/><path d="M74.767,6.026l13.461,24.72l29.203,-6.342l-8.992,28.616l23.261,15.75l-26.177,15.75l3.691,28.617l-28.028,-6.343l-18.039,24.72l-13.462,-24.72l-29.204,6.343l8.993,-28.617l-23.262,-15.75l26.179,-15.75l-3.693,-28.616l28.03,6.342l18.039,-24.72Z" style="fill:url(#_Radial1);fill-rule:nonzero;"/><path d="M66.521,46.776c1.024,-0.591 2.055,-1.116 3.127,-1.583c1.567,-0.684 3.219,-1.245 5.068,-1.708c2.768,-0.694 5.583,-1.161 8.514,-1.226c1.564,-0.036 3.109,0.105 4.584,0.566l0.051,0.015c2.21,0.797 3.118,1.354 4.738,3.055l0.474,0.667l-0.833,-5.463l2.195,-0.354c-0.787,-0.454 -1.485,-1.093 -2.051,-1.928c-0.634,-0.935 -1.011,-1.998 -1.084,-3.127c-0.238,-3.685 2.796,-6.675 6.326,-7.092c3.52,-0.415 7.544,1.892 7.79,5.692c0.125,1.95 -0.625,3.693 -1.881,4.988l2.215,-0.358l4.73,29.87l-11.772,1.862l0.343,2.567l1.988,-0.312l0.318,2.287c1.695,-2.033 3.81,-2.95 6.387,-3.376c2.218,-0.365 4.362,-0.071 6.386,0.918c3.446,1.685 4.975,5.008 5.606,8.617c0.411,2.352 0.311,4.871 -0.769,7.041c-1.586,3.184 -4.615,5.169 -8.124,5.62c-1.501,0.193 -2.954,0.057 -4.313,-0.391c-0.435,-0.142 -0.859,-0.318 -1.273,-0.524c-0.75,0.423 -1.506,0.825 -2.273,1.217c-1.166,0.599 -2.229,1.07 -3.532,1.272c-1.447,0.223 -2.886,0.147 -4.214,-0.325c-0.291,-0.102 -0.576,-0.225 -0.855,-0.367c-0.496,0.265 -0.974,0.514 -1.462,0.764l-0.715,0.367c-1.165,0.596 -2.228,1.068 -3.531,1.27c-2.167,0.336 -4.314,0 -6.093,-1.331c-1.021,-0.764 -1.707,-1.64 -2.185,-2.625c-0.12,0.339 -0.259,0.671 -0.422,0.995c-1.585,3.184 -4.613,5.17 -8.123,5.621c-2.274,0.292 -4.443,-0.17 -6.337,-1.332l0.269,1.828l-15.794,2.639l-3.734,-24.652l-1.3,-5.226l-0.531,-2.411l-0.495,2.969l-0.837,5.033l-7.689,1.052l-3.258,-6.858l0.627,7.504l-12.231,1.723l-1.71,-36.441l12.467,-1.878l4.978,11.005l1.853,-11.973l12.429,-1.874l1.566,6.256l0.448,-0.092l2.551,-0.404c-1.675,-0.904 -2.928,-2.491 -3.314,-4.578c-0.726,-3.923 2.765,-7.105 6.444,-7.446c3.569,-0.33 6.937,1.744 7.457,5.43c0.213,1.506 -0.109,2.986 -0.954,4.252c-0.226,0.337 -0.478,0.65 -0.752,0.937l2.242,-0.354l0.27,1.71Zm10.594,27.21l-6.145,0.889l0.008,0.053l-13.748,2.185l2.347,15.39c0.415,-0.058 0.829,-0.117 1.244,-0.176c-0.174,-0.57 -0.319,-1.158 -0.439,-1.764c-0.641,-3.231 -0.243,-6.653 1.87,-9.282c1.716,-2.134 3.868,-3.085 6.505,-3.52c2.219,-0.365 4.361,-0.071 6.386,0.917c0.394,0.193 0.763,0.407 1.109,0.642l-0.389,-2.589l1.616,-0.254l-0.364,-2.491Z" style="fill:#00a1e4;fill-rule:nonzero;"/><path d="M59.31,74.334l-3.976,-25.101l8.913,-1.41l3.974,25.101l-8.911,1.41Z" style="fill:#fff;fill-rule:nonzero;"/><path d="M98.814,68.196l-3.825,-25.097l8.762,-1.414l3.975,25.101l-8.912,1.41Zm-50.883,7.555l-0.613,-3.035l-1.115,-5.062l-1.629,-6.802l-0.478,-2.743l-0.099,-1.296l-0.044,1.29l-0.382,2.714l-1.11,7.137l-0.906,5.422l-0.544,3.281l-4.182,0.573l-3.745,-7.88l-3.072,-6.565l-1.452,-3.638l0.103,1.152l0.336,2.738l0.477,6.905l0.709,8.492l-7.355,1.035l-1.484,-31.624l8.513,-1.283l6.397,14.144l1.314,3.49l0.039,-1.146l0.228,-2.433l2.407,-15.559l8.513,-1.283l7.686,30.694l-8.512,1.282Zm53.807,8.401c-0.508,-2.559 -0.251,-5.268 1.385,-7.304c1.365,-1.7 3.058,-2.328 5.017,-2.651c1.717,-0.284 3.352,-0.069 4.935,0.704c2.708,1.325 3.801,4.061 4.291,6.867c0.353,2.021 0.232,3.974 -0.553,5.551c-1.147,2.304 -3.373,3.932 -6.273,4.305c-2.161,0.277 -4.036,-0.325 -5.593,-1.579c-1.911,-1.536 -2.753,-3.585 -3.209,-5.893Zm-49.728,16.16l-3.301,-21.811l6.282,-0.925l2.563,17.649c1.641,-0.233 3.282,-0.466 4.924,-0.699l0.581,3.939l-11.049,1.847Zm10.737,-10.218c-0.508,-2.558 -0.251,-5.269 1.384,-7.304c1.367,-1.7 3.058,-2.328 5.018,-2.651c1.719,-0.283 3.353,-0.068 4.935,0.706c2.708,1.323 3.8,4.059 4.29,6.865c0.353,2.022 0.233,3.976 -0.552,5.552c-1.148,2.302 -3.373,3.932 -6.272,4.305c-2.163,0.277 -4.037,-0.326 -5.594,-1.578c-1.911,-1.537 -2.752,-3.587 -3.209,-5.895Zm5.984,-5.562c-0.428,0.734 -0.41,1.525 -0.401,2.496c0.054,0.452 0.107,0.902 0.162,1.355c0.052,0.431 0.115,0.85 0.181,1.28c0.093,0.591 0.197,1.228 0.383,1.815c0.326,1.025 0.976,2.312 2.238,2.127c0.684,-0.099 1.162,-0.576 1.355,-1.29c0.27,-0.996 0.064,-2.15 -0.056,-3.159c-0.058,-0.477 -0.118,-0.928 -0.209,-1.399c-0.277,-1.434 -0.695,-3.041 -1.507,-3.72c-0.394,-0.328 -0.709,-0.285 -1.011,-0.261c-0.44,0.036 -0.824,0.225 -1.135,0.756Zm9.872,-5.792l1.606,-0.254l-0.483,-3.306l5.822,-2.484l0.641,4.879l2.001,-0.313l0.569,4.082l-1.97,0.308l0.883,6.234c0.094,0.552 0.182,1.045 0.307,1.557c0.143,0.58 0.438,1.085 1.076,1.245c0.434,0.109 0.897,-0.063 1.478,-0.418l0.578,3.612c-1.101,0.563 -1.85,0.885 -2.799,1.033c-1.666,0.257 -3.114,-0.006 -4.281,-0.88c-1.535,-1.148 -1.935,-2.696 -2.207,-4.426l-1.012,-7.14l-1.614,0.23l-0.595,-3.959Zm10.803,-1.652l1.607,-0.254l-0.51,-3.363l5.823,-2.484l0.666,4.994l2.002,-0.314l0.563,4.055l-1.971,0.308l0.865,6.146c0.092,0.554 0.18,1.047 0.305,1.557c0.143,0.582 0.439,1.087 1.076,1.247c0.434,0.109 0.899,-0.063 1.478,-0.418l0.579,3.61c-1.102,0.564 -1.85,0.887 -2.8,1.034c-1.665,0.257 -3.113,-0.007 -4.282,-0.879c-1.535,-1.149 -1.934,-2.698 -2.206,-4.427l-0.986,-6.998l-1.615,0.231l-0.594,-4.045Zm18.317,1.502c-0.428,0.733 -0.41,1.524 -0.401,2.494c0.053,0.452 0.107,0.904 0.162,1.356c0.05,0.43 0.112,0.85 0.18,1.279c0.094,0.592 0.197,1.229 0.382,1.817c0.325,1.023 0.977,2.311 2.239,2.126c0.685,-0.099 1.164,-0.575 1.355,-1.291c0.269,-0.996 0.065,-2.148 -0.056,-3.159c-0.057,-0.476 -0.118,-0.927 -0.209,-1.398c-0.275,-1.434 -0.696,-3.04 -1.507,-3.72c-0.394,-0.328 -0.709,-0.285 -1.01,-0.261c-0.441,0.036 -0.824,0.226 -1.135,0.757Zm-4.709,-44.146c0.157,2.44 -1.839,4.284 -4.13,4.669c-2.053,0.346 -3.59,-0.304 -4.5,-1.648c-0.419,-0.618 -0.632,-1.272 -0.674,-1.931c-0.158,-2.431 1.971,-4.279 4.205,-4.542c2.121,-0.251 4.946,1.067 5.099,3.452Zm-48.829,7.363c-0.451,-2.426 1.954,-4.389 4.295,-4.606c2.469,-0.228 4.532,1.122 4.849,3.366c0.14,0.991 -0.096,1.863 -0.573,2.577c-0.851,1.275 -2.262,1.979 -3.701,2.104c-2.173,0.188 -4.409,-0.947 -4.87,-3.441Zm31.855,28.445l-2.582,-16.722c-0.109,-0.708 -0.23,-1.223 -0.49,-1.783c-0.136,-0.294 -0.297,-0.527 -0.478,-0.708c-0.974,-0.982 -2.524,-0.491 -3.818,-0.201l-0.894,0.274l3.066,19.901l-8.761,1.265l-3.711,-23.762l1.05,-0.566c3.11,-1.678 6.398,-2.459 9.865,-2.949c2.541,-0.359 5.333,-0.648 7.81,0.124l0.88,0.317c2.747,0.991 3.856,3.425 4.439,6.027l2.684,17.376l-9.06,1.407Z" style="fill:#fff;fill-rule:nonzero;"/><defs><radialGradient id="_Radial1" cx="0" cy="0" r="1" gradientUnits="userSpaceOnUse" gradientTransform="matrix(62.744,0,0,62.744,68.9564,68.7704)"><stop offset="0" style="stop-color:#fffac2;stop-opacity:1"/><stop offset="0.75" style="stop-color:#ffc20e;stop-opacity:1"/><stop offset="1" style="stop-color:#fdb913;stop-opacity:1"/></radialGradient></defs></svg>