<?xml version="1.0" encoding="utf-8"?>
<!-- Generator: Adobe Illustrator 21.1.0, SVG Export Plug-In . SVG Version: 6.00 Build 0)  -->
<svg version="1.1" xmlns="http://www.w3.org/2000/svg" xmlns:xlink="http://www.w3.org/1999/xlink" x="0px" y="0px"
	 viewBox="0 0 241.68 111.81" style="enable-background:new 0 0 241.68 111.81;" xml:space="preserve">
<style type="text/css">
	.st0{fill:#FFFFFF;}
	.st1{fill:#C88F00;}
	.st2{fill:#2D0600;}
	.st3{fill:#F6C900;}
</style>
<g id="Layer_2">
	<path class="st0" d="M167.46,0c-3.19,0-6.4,0.21-9.59,0.31c-3.28,0.11-6.63,0.02-9.9,0.33c-2.78,0.27-4.41,2.34-6.2,4.21
		c-1.3-1.32-2.44-2.8-4.23-3.44c-1.06-0.38-2.05-0.36-3.13-0.33c-3.23,0.11-6.46,0.21-9.68,0.32c-11.95,0.39-23.91,0.79-35.86,1.18
		C78.37,2.93,67.89,3.27,57.4,3.62c-2.78,0.09-5.83-0.16-8.25,1.44c-4.45,2.95-3.85,8.36-3.98,12.99
		c-0.29,10.78-0.58,21.57-0.87,32.35c-0.01,0.26-0.01,0.51-0.02,0.77c-6.35,0.01-12.71,0.06-19.06,0.1
		c-1.01,0.01-2.04-0.04-3.05,0.04c-3.51,0.27-6.23,3.15-7,6.47c-0.37,1.6-0.28,3.35-0.33,4.99c-0.06,1.93-0.12,3.87-0.17,5.8
		c-0.09,2.96-0.19,5.92-0.29,8.88c-1.98-0.02-3.95-0.05-5.93-0.05c-3.82,0-6.97,2.47-7.88,6.21c-0.44,1.82-0.31,3.85-0.36,5.72
		C0.13,91.37,0,93.42,0,95.45c0.01,2.84,1.84,4.6,3.53,6.59c1.41,1.66,2.81,3.91,4.92,4.73c1.81,0.7,4.1,0.4,6.01,0.44
		c1.43,0.03,2.87,0.07,4.3,0.1c2.41,0.05,4.83,0.2,7.24,0.16c2.1-0.03,3.33-0.93,4.75-2.42c1.56,1.83,3.28,2.6,5.63,2.65
		c2.5,0.06,4.99,0.11,7.49,0.17c5.01,0.11,10.06,0.43,15.07,0.34c0.39-0.01,0.77-0.03,1.16-0.1c0.38-0.08,1.05-0.05,1.38-0.19
		c0.2-0.08,0.57-0.55,0.77-0.71c0.6-0.46,1.1-0.97,1.63-1.51c1.39,1.57,2.87,2.66,5.05,2.74c1.68,0.06,3.36,0.08,5.03,0.11
		c3.89,0.09,7.8,0.28,11.7,0.26c2.23-0.01,3.66-1.05,5.15-2.59c1.61,1.79,3.31,2.78,5.73,2.83c2.14,0.05,4.29,0.1,6.43,0.14
		c6.08,0.14,12.16,0.27,18.23,0.41c3.1,0.07,6.2,0.14,9.31,0.21c3.04,0.07,6.08,0.14,9.12,0.21c1.64,0.04,3.64,0.28,4.84-1.03
		c1.45-1.57,0.92-5.49,0.95-7.49c0.04-2.63,0.08-5.27,0.12-7.9l6.86,0.09c-0.05,3.41-0.1,6.82-0.14,10.23
		c-0.02,1.41-0.27,3.19,0.4,4.46c0.8,1.53,2.3,1.98,3.89,2.02c7.56,0.17,15.11,0.34,22.67,0.51c2.13,0.05,4.23-0.07,6.32-0.07
		c0.21-0.76,1.65-1.29,2.29-1.9c0.73-0.71,1.44-1.42,2.17-2.14c1.36-1.34,2.73-2.69,4.09-4.03c-0.02,2.35-0.71,5.91,1.29,7.64
		c1.52,1.31,4.12,0.96,5.99,1c5.33,0.12,10.66,0.33,15.99,0.36c2.27,0.01,4.22-1.44,4.25-3.8c0.02-1.29,0.02-2.58,0.03-3.87
		c0.04-5.89,0.08-11.79,0.12-17.68c0.03-4.43,0.06-8.85,0.09-13.28c2.73,0.01,6.95,0.86,8.31-2.29c0.44-1.02,0.32-2.25,0.32-3.34
		c0.01-1.62,0.02-3.24,0.03-4.86c0.02-2.93,0.11-5.87,0.05-8.8c-0.01-0.75-0.18-1.22-0.44-1.92c-0.49-1.28-2.02-1.94-3.38-2.01
		c-5.48-0.28-11.06,0.07-16.55,0.11c-4.26,0.03-8.53,0.06-12.79,0.08c-6.2,0.04-12.41,0.09-18.61,0.13
		c0.09-7.53,0.18-15.05,0.26-22.58c0.05-4.38,0.1-8.76,0.15-13.14c0.03-2.59,0.25-4.93-1.7-7.03c-1.5-1.62-3.14-3.13-4.71-4.68
		C171.25,1.34,169.82,0,167.46,0z"/>
</g>
<g id="Layer_1">
	<g>
		<path class="st1" d="M194.04,107.5l0-0.31l0.04-4.39l-5.88,5.79l0.99-0.07c1.65-0.11,3.3-0.22,4.95-0.32
			C194.1,107.97,194.03,107.74,194.04,107.5z"/>
		<path class="st1" d="M152.22,106.58l0.01-0.61l0.17-12.25l-6.86-0.09l-0.2,12.78c-0.01,0.49-0.11,0.96-0.3,1.42
			c2.45-0.11,4.91-0.21,7.36-0.32C152.32,107.21,152.22,106.9,152.22,106.58z"/>
	</g>
	<path class="st1" d="M241.67,61.98l-0.01-0.06l-0.01-0.06l-0.01-0.07c-0.02-0.08-0.04-0.14-0.04-0.14l-0.03-0.07l-0.03-0.06
		c0-0.01-0.03-0.06-0.03-0.06c-0.03-0.06-0.07-0.11-0.07-0.11l-0.04-0.06l-0.04-0.06c0-0.01-0.04-0.05-0.04-0.05
		c-0.04-0.04-0.05-0.05-0.06-0.07c-0.06-0.06-0.1-0.09-0.1-0.09l-0.06-0.05l-0.06-0.04c-3.5-2.25-7-4.5-10.5-6.74l-0.09,15.19
		c0,0.51-0.11,1.01-0.31,1.49c-0.2,0.45-0.47,0.85-0.83,1.21c-0.34,0.33-0.73,0.59-1.16,0.78c-0.05,0.02-0.09,0.04-0.14,0.06
		c-0.45,0.17-0.9,0.25-1.35,0.26c-0.04,0-4.83-0.02-4.83-0.02l-0.23,34.88c0,0.09-0.01,0.18-0.01,0.26v0.17c0,0.01,0,0.26,0,0.26
		l-0.1,0.19c-0.03,0.14-0.09,0.27-0.14,0.4c3.92-0.4,7.83-0.79,11.75-1.19c0.17-0.02,0.34-0.07,0.48-0.14
		c0.15-0.07,0.28-0.18,0.4-0.3c0.11-0.12,0.2-0.26,0.26-0.42c0.06-0.15,0.1-0.32,0.1-0.5l0.14-29.07c0-0.19,0.04-0.37,0.11-0.54
		c0.07-0.16,0.18-0.31,0.3-0.44c0.13-0.12,0.28-0.22,0.45-0.29c0.08-0.03,0.17-0.06,0.26-0.08c0.03-0.01,0.07-0.01,0.1-0.01
		c0.06-0.01,0.12-0.02,0.18-0.02l4.33,0.02c0.07,0,0.13-0.01,0.19-0.02c0.03,0,0.07,0,0.09-0.01c0.09-0.02,0.18-0.05,0.26-0.08
		c0.17-0.07,0.32-0.17,0.45-0.3c0.13-0.12,0.23-0.27,0.3-0.44c0.08-0.17,0.11-0.35,0.11-0.54l0.05-12.88v-0.06L241.67,61.98z"/>
	<path class="st1" d="M178.73,9.49c0.05,0.12,0.1,0.25,0.15,0.39c0.03,0.09,0.06,0.19,0.09,0.27c0.02,0.07,0.04,0.14,0.06,0.22
		c0.01,0.06,0.03,0.11,0.04,0.16c0.04,0.19,0.06,0.28,0.08,0.38c0.04,0.22,0.06,0.42,0.07,0.62c0,0.11,0,0.15,0,0.19
		c0,0.06-0.45,38.55-0.45,38.55l0.51,0l0.73-0.01l0.67,0l17.92-0.12c0.03,0,0.24-23.02,0.24-23.02l0-0.1l-0.01-0.11l-0.01-0.1
		c0-0.02-0.02-0.09-0.02-0.09c-0.01-0.08-0.02-0.13-0.04-0.19c-0.01-0.05-0.02-0.1-0.04-0.15c-0.01-0.03-0.01-0.05-0.02-0.08
		c-0.02-0.07-0.04-0.13-0.06-0.2c-0.01-0.03-0.02-0.06-0.03-0.09c-0.01-0.04-0.03-0.07-0.04-0.1c-0.01-0.02-0.07-0.16-0.07-0.16
		c-0.02-0.03-0.09-0.18-0.09-0.18c0-0.01-0.09-0.17-0.09-0.17l-0.04-0.07c-0.02-0.04-0.05-0.09-0.05-0.09l-0.08-0.11l-0.05-0.06
		c-0.03-0.05-0.11-0.14-0.11-0.14l-0.08-0.09l-4.96-4.92l-0.06-0.05l-0.06-0.05l-0.06-0.05l-0.07-0.05
		C188.05,16.31,183.38,12.89,178.73,9.49z"/>
	<path class="st2" d="M63.51,103.29c0.05-0.02,0.1-0.03,0.15-0.04c0.09-0.01,0.16-0.02,0.23-0.02c0.14,0,0.23,0.01,0.32,0.04
		c0.09,0.02,0.18,0.05,0.26,0.09c0.08,0.04,0.17,0.09,0.25,0.15c0.06,0.04,0.11,0.09,0.16,0.14c0.02,0.02,0.04,0.04,0.06,0.07
		l1.12,1.27l0.15,0.17c0.13,0.15,0.31,0.3,0.5,0.44c0.17,0.12,0.37,0.24,0.57,0.34c0.02,0.01,0.04,0.02,0.06,0.03
		c0.22,0.11,0.45,0.19,0.67,0.25c0.22,0.06,0.44,0.1,0.64,0.1l17.23,0.39c0.24,0,0.44-0.03,0.66-0.07c0.16-0.04,0.32-0.08,0.48-0.14
		c0.07-0.03,0.14-0.05,0.21-0.08c0.06-0.02,0.12-0.05,0.18-0.08c0.19-0.09,0.34-0.17,0.48-0.26c0.2-0.13,0.38-0.27,0.53-0.42
		l1.03-1.05l0.35-0.36c0.04-0.04,0.09-0.08,0.13-0.12c0.03-0.03,0.07-0.05,0.1-0.08c0.02-0.01,0.03-0.02,0.05-0.03
		c0.07-0.04,0.14-0.08,0.22-0.11c0.06-0.02,0.11-0.04,0.17-0.06c0.02,0,0.04-0.01,0.06-0.01c0.13-0.03,0.22-0.03,0.3-0.03
		c0.13,0,0.22,0.01,0.31,0.03c0.09,0.02,0.18,0.05,0.27,0.09c0.09,0.04,0.17,0.09,0.25,0.15c0.05,0.04,0.1,0.08,0.15,0.13
		c0.03,0.02,0.05,0.05,0.07,0.08l1.14,1.27l0.18,0.2c0.14,0.16,0.32,0.31,0.51,0.45c0.15,0.11,0.32,0.21,0.49,0.3
		c0.05,0.03,0.1,0.05,0.15,0.08c0.23,0.11,0.46,0.2,0.69,0.26c0.23,0.06,0.45,0.1,0.66,0.1l29.07,0.66
		c0.21,0.01,0.46,0.01,0.72,0.02c0.26,0.01,0.54,0.01,0.82,0.02c0.28,0.01,0.56,0.01,0.82,0.02c0.26,0,0.51,0.01,0.72,0.02
		l13.75,0.31c0.24,0,0.43-0.04,0.61-0.12c0.07-0.03,0.13-0.06,0.2-0.1c0.07-0.04,0.11-0.07,0.15-0.1c0.05-0.04,0.1-0.08,0.15-0.14
		c0.04-0.04,0.08-0.08,0.11-0.12c0.09-0.12,0.17-0.25,0.23-0.39c0.08-0.19,0.13-0.41,0.13-0.63l0.2-13.27
		c0.01-0.23,0.05-0.44,0.13-0.63c0.08-0.19,0.2-0.37,0.34-0.51c0.14-0.14,0.31-0.26,0.5-0.34c0.02-0.01,0.03-0.02,0.05-0.02
		c0.19-0.07,0.36-0.1,0.53-0.1c0.03,0,7.99,0.11,7.99,0.11c0.05,0,0.1,0,0.15,0.01c0.16,0.02,0.32,0.06,0.46,0.12
		c0.16,0.08,0.31,0.18,0.43,0.3c0.02,0.02,0.04,0.04,0.06,0.06c0.14,0.15,0.25,0.33,0.33,0.53c0.08,0.2,0.12,0.41,0.11,0.64
		l-0.01,0.39L154.35,106l-0.01,0.61c0,0.23,0.04,0.44,0.12,0.64c0.02,0.06,0.05,0.11,0.08,0.17c0.07,0.13,0.16,0.25,0.26,0.36
		c0.14,0.15,0.31,0.28,0.5,0.36c0.19,0.09,0.4,0.14,0.61,0.15l27.29,0.61c0.12,0,0.19,0,0.26-0.01c0.04-0.01,0.08-0.01,0.12-0.01
		c0.03,0,0.05-0.01,0.07-0.01c0.09-0.01,0.18-0.03,0.27-0.05c0.1-0.03,0.21-0.05,0.32-0.08c0.08-0.02,0.14-0.05,0.21-0.07
		c0.09-0.03,0.17-0.06,0.24-0.09c0.06-0.02,0.12-0.05,0.19-0.08c0.19-0.08,0.37-0.18,0.54-0.28c0.07-0.04,0.13-0.09,0.2-0.13
		c0.14-0.1,0.27-0.21,0.38-0.31l9.08-8.94l0.19-0.16l0.18-0.11l0.16-0.07l0.15-0.02c0.08,0,0.14,0.02,0.2,0.06
		c0.06,0.04,0.11,0.1,0.15,0.17c0.03,0.05,0.05,0.1,0.07,0.16c0.01,0.03,0.02,0.07,0.03,0.11c0.02,0.11,0.03,0.23,0.03,0.37
		l-0.08,7.85l0,0.31c0,0.19,0.03,0.37,0.08,0.54c0.01,0.04,0.03,0.08,0.04,0.11c0.09,0.2,0.2,0.39,0.35,0.54
		c0.15,0.16,0.33,0.28,0.52,0.37c0.2,0.09,0.42,0.14,0.64,0.15l19.96,0.45c0.11,0,0.18,0,0.25-0.01c0.14-0.02,0.28-0.05,0.41-0.11
		c0.04-0.01,0.07-0.03,0.11-0.05c0.16-0.08,0.31-0.18,0.43-0.31c0.15-0.15,0.28-0.33,0.37-0.53c0.06-0.14,0.1-0.29,0.12-0.44
		c0.01-0.09,0.02-0.15,0.02-0.22l0.24-35.3c0-0.23,0.05-0.45,0.14-0.65c0.09-0.2,0.21-0.38,0.37-0.53c0.15-0.15,0.33-0.27,0.54-0.36
		c0.2-0.08,0.41-0.13,0.64-0.13c0.02,0,5.24,0.02,5.24,0.02c0.23,0,0.43-0.04,0.61-0.11c0.25-0.1,0.43-0.23,0.59-0.38
		c0.16-0.15,0.28-0.33,0.37-0.54c0.09-0.2,0.14-0.42,0.14-0.66l0.09-15.64c0-0.11-0.01-0.21-0.03-0.31
		c-0.04-0.15-0.06-0.24-0.09-0.31c-0.02-0.06-0.04-0.09-0.06-0.13c-0.01-0.02-0.02-0.03-0.03-0.05c-0.06-0.1-0.12-0.19-0.2-0.28
		c-0.03-0.03-0.06-0.07-0.09-0.1c-0.02-0.02-0.04-0.04-0.06-0.06c-0.06-0.05-0.1-0.08-0.14-0.11c-0.02-0.01-0.03-0.02-0.05-0.03
		c-0.09-0.06-0.19-0.11-0.29-0.16c-0.2-0.08-0.42-0.13-0.65-0.13c-0.01,0-28.13,0.19-28.13,0.19l-17.92,0.12l-0.67,0l-0.73,0.01
		l-0.55,0l-0.44,0h-0.07c-0.15,0-0.28-0.02-0.41-0.05c-0.05-0.01-0.1-0.03-0.15-0.05l-0.06-0.03c-0.19-0.08-0.36-0.2-0.51-0.35
		c-0.14-0.15-0.26-0.32-0.34-0.52c-0.08-0.2-0.12-0.41-0.12-0.63l0.46-39.02c0-0.06,0-0.08,0-0.11c0-0.14-0.02-0.27-0.04-0.4
		c-0.01-0.07-0.03-0.14-0.04-0.21c-0.02-0.07-0.03-0.11-0.04-0.15c-0.01-0.05-0.02-0.09-0.04-0.14c-0.02-0.07-0.04-0.14-0.06-0.21
		c-0.03-0.09-0.06-0.18-0.1-0.26c-0.08-0.2-0.17-0.39-0.27-0.57c-0.03-0.05-0.06-0.09-0.08-0.13c-0.13-0.22-0.28-0.41-0.43-0.56
		l-5.9-5.87c-0.02-0.02-0.04-0.04-0.07-0.06c-0.02-0.02-0.04-0.03-0.05-0.05c-0.08-0.07-0.12-0.1-0.16-0.13
		c-0.09-0.06-0.18-0.12-0.28-0.19c-0.21-0.13-0.45-0.24-0.69-0.34c-0.25-0.09-0.5-0.17-0.75-0.22c-0.22-0.04-0.43-0.07-0.62-0.07
		c-0.03,0-0.05,0-0.08,0l-19.16,0.63c-0.22,0.01-0.45,0.05-0.69,0.11c-0.24,0.07-0.49,0.15-0.73,0.26
		c-0.24,0.11-0.47,0.24-0.69,0.38c-0.21,0.14-0.4,0.29-0.55,0.45l-2.66,2.78c-0.03,0.03-0.06,0.06-0.09,0.09
		c-0.02,0.02-0.05,0.04-0.07,0.06c-0.03,0.02-0.06,0.05-0.09,0.07c-0.09,0.06-0.18,0.11-0.27,0.15c-0.09,0.04-0.19,0.07-0.29,0.09
		c-0.1,0.02-0.2,0.04-0.3,0.04c-0.13,0-0.22-0.01-0.3-0.02c-0.05-0.01-0.09-0.02-0.14-0.03c-0.05-0.01-0.1-0.03-0.15-0.05
		c-0.07-0.03-0.13-0.06-0.19-0.09C141,7.03,140.97,7.02,140.95,7c-0.06-0.04-0.11-0.08-0.16-0.12c-0.03-0.03-0.06-0.05-0.08-0.07
		l-2.56-2.61c-0.09-0.09-0.18-0.17-0.28-0.24c-0.05-0.04-0.1-0.07-0.15-0.1c-0.05-0.03-0.08-0.05-0.11-0.07
		c-0.02-0.01-0.04-0.03-0.07-0.04c-0.19-0.11-0.39-0.21-0.6-0.29c-0.24-0.09-0.48-0.17-0.72-0.22c-0.21-0.04-0.42-0.07-0.6-0.07
		c-0.03,0-0.05,0-0.08,0L53.2,5.88c-0.77,0.02-1.51,0.22-2.18,0.55c-0.68,0.33-1.29,0.79-1.81,1.35c-0.52,0.57-0.95,1.23-1.25,1.96
		c-0.3,0.73-0.48,1.53-0.5,2.36L46.37,52.2c-0.05,0.16-0.12,0.3-0.21,0.43c-0.09,0.13-0.19,0.25-0.31,0.34
		c-0.12,0.1-0.25,0.17-0.39,0.23c-0.14,0.05-0.29,0.08-0.45,0.08l-4.76,0.01l-17.62,0.12c-0.75,0-1.46,0.18-2.12,0.51
		c-0.66,0.32-1.25,0.78-1.76,1.35c-0.51,0.57-0.92,1.24-1.22,1.99c-0.29,0.75-0.47,1.57-0.5,2.42l-0.3,9.88l-0.28,8.6
		c-0.01,0.17-0.04,0.33-0.08,0.48c-0.05,0.15-0.12,0.29-0.21,0.41c-0.09,0.12-0.19,0.23-0.31,0.32c-0.11,0.09-0.25,0.16-0.38,0.21
		L8,79.52c-0.76,0-1.46,0.16-2.1,0.46c-0.65,0.3-1.25,0.74-1.75,1.27c-0.5,0.54-0.92,1.18-1.21,1.9c-0.29,0.71-0.47,1.5-0.5,2.32
		l-0.06,1.8l-0.26,8.25c-0.01,0.21,0.01,0.44,0.05,0.67c0.04,0.23,0.1,0.47,0.18,0.71c0.08,0.24,0.17,0.46,0.28,0.67
		c0.11,0.21,0.23,0.39,0.35,0.54l4.87,5.76c0.13,0.15,0.28,0.3,0.46,0.43c0.18,0.13,0.38,0.25,0.58,0.36
		c0.21,0.1,0.42,0.19,0.63,0.25c0.21,0.06,0.41,0.09,0.59,0.1l4.16,0.09c0.19,0,0.41,0.01,0.64,0.01c0.23,0,0.48,0.01,0.72,0.02
		c0.25,0.01,0.49,0.01,0.73,0.02c0.24,0.01,0.45,0.01,0.64,0.02l9.13,0.2c0.06,0,0.08,0,0.1,0c0.16,0,0.34-0.03,0.51-0.07
		c0.14-0.04,0.29-0.08,0.43-0.13c0.08-0.03,0.15-0.06,0.22-0.08c0.09-0.04,0.19-0.08,0.28-0.13c0.09-0.05,0.16-0.09,0.24-0.13
		c0.05-0.03,0.08-0.05,0.1-0.07c0.19-0.12,0.36-0.26,0.5-0.41l1.3-1.37c0.04-0.04,0.08-0.08,0.13-0.12
		c0.03-0.03,0.06-0.05,0.09-0.08c0.07-0.05,0.1-0.06,0.13-0.08c0.04-0.02,0.08-0.04,0.12-0.06c0.04-0.02,0.08-0.03,0.12-0.05
		c0.05-0.01,0.09-0.03,0.14-0.03c0.04-0.01,0.08-0.02,0.13-0.02c0.04,0,0.07,0,0.1,0c0.12,0,0.21,0.01,0.29,0.03
		c0.08,0.02,0.17,0.05,0.25,0.09c0.08,0.04,0.16,0.08,0.24,0.14c0.06,0.05,0.11,0.09,0.16,0.15c0.02,0.02,0.03,0.04,0.05,0.06
		l1.09,1.27l0.12,0.14c0.13,0.15,0.3,0.3,0.48,0.43c0.19,0.13,0.39,0.26,0.6,0.36c0.24,0.11,0.44,0.19,0.65,0.25
		c0.21,0.06,0.42,0.1,0.61,0.1l23.74,0.54c0.22,0,0.41-0.02,0.61-0.07c0.08-0.02,0.12-0.03,0.17-0.04c0.15-0.04,0.31-0.09,0.46-0.15
		c0.03-0.01,0.05-0.02,0.08-0.03c0.16-0.07,0.3-0.14,0.45-0.22c0.08-0.05,0.13-0.08,0.19-0.11c0.03-0.02,0.06-0.04,0.08-0.06
		c0.11-0.08,0.22-0.16,0.32-0.25c0.04-0.04,0.08-0.07,0.11-0.11l1.1-1.13l0.25-0.26c0.06-0.06,0.13-0.12,0.2-0.17
		c0.14-0.1,0.22-0.13,0.29-0.16C63.43,103.32,63.47,103.31,63.51,103.29z"/>
	<path class="st3" d="M175.34,91.88c0,1.49-1.02,2.72-2.28,2.75c-1.26,0.03-2.28-1.17-2.28-2.66V71.02c0-1.49,1.02-2.72,2.28-2.75
		c1.26-0.02,2.28,1.17,2.28,2.66V91.88z M185.26,60.04c-0.44-0.54-1.38-0.97-2.09-0.96l-18.61-0.08c-0.71,0.02-1.68,0.47-2.14,1
		l-2.12,2.45c-0.47,0.54-0.85,1.55-0.85,2.24v33.57c0,0.69,0.37,1.7,0.81,2.24l2.14,2.57c0.45,0.53,1.4,0.97,2.11,0.97l17.76,0.59
		c0.72,0,1.7-0.42,2.19-0.94l2.6-2.75c0.49-0.52,0.89-1.51,0.89-2.2V64.66c0-0.69-0.36-1.71-0.79-2.25L185.26,60.04z"/>
	<path class="st3" d="M156.04,19.71c0-1.49,1.02-2.71,2.28-2.74c1.26-0.02,2.29,1.16,2.29,2.65v20.87c0,1.49-1.02,2.71-2.29,2.74
		c-1.26,0.03-2.28-1.16-2.28-2.65V19.71z M146.97,51.63c0.44,0.53,1.4,0.97,2.11,0.97l17.78,0.11c0.71,0,1.7-0.42,2.19-0.93
		l2.6-2.74c0.49-0.51,0.89-1.5,0.89-2.19V12.85c0-0.69-0.36-1.7-0.79-2.24l-1.92-2.37c-0.44-0.54-1.38-0.97-2.09-0.95l-18.62,0.43
		c-0.71,0.02-1.68,0.47-2.14,1l-2.12,2.44c-0.46,0.54-0.85,1.54-0.85,2.24v33.44c0,0.69,0.37,1.7,0.81,2.23L146.97,51.63z"/>
	<path class="st3" d="M53.07,51.21c1.23,1.09,2.84,0.94,4.54,0.93l14.67,0.09c0.05,0,0.07,0,0.12,0c1.76-0.03,3.3-0.02,4.42-1.02
		c1.13-1.01,1.11-2.43,1.1-3.71v-2.86c-0.11-1.19-0.11-2.41-1.12-3.26c-1.13-0.97-2.69-0.92-4.47-0.9l-9.12,0.06l0.01-4.12l9-0.07
		c1.82-0.03,3.37-0.02,4.5-1.02c1.12-0.98,1.1-2.33,1.1-3.61c0-0.03,0-0.06,0-0.09v-2.75c-0.13-1.18-0.14-2.35-1.11-3.19
		c-1.13-0.98-2.69-0.92-4.48-0.91l-9,0.07l0.01-4.11l9.05-0.07c0.06,0,0.07,0,0.13,0c1.75-0.03,3.29-0.01,4.42-1.02
		c1.13-1.01,1.11-2.43,1.1-3.71v-2.94l-0.05-0.05c-0.13-1.09-0.13-2.2-1.07-2.99c-1.14-0.98-2.7-0.93-4.48-0.91L57.7,9.16
		c-0.05,0-0.11,0-0.13,0c-1.67,0.03-3.22,0.35-4.44,1.48c-1.22,1.13-1.21,3.72-1.2,5.32L51.9,47.04
		C51.89,48.7,51.84,50.12,53.07,51.21z"/>
	<path class="st3" d="M125.69,24.62l-1.13,0.01l0.01-7.25l1.47-0.01c1.66,0,2.23,0.32,2.51,0.63c0.31,0.31,0.66,1.2,0.65,2.97
		c-0.02,1.8-0.45,2.55-0.87,2.93c-0.42,0.4-1.2,0.69-2.52,0.71C125.75,24.62,125.71,24.62,125.69,24.62z M127.88,36.76
		c0.28,0.25,0.54,0.67,0.59,1.73l-0.01,9.85c-0.03,0.11-0.03,0.21,0,0.27c-0.03,3.03,1.36,3.79,2.6,3.77c0.28,0,6.65,0.01,6.65,0.01
		c1.9-0.04,2.37-0.64,2.36-2.27l0.02-13.79l-0.02,1.39c-0.02-2.31-0.17-4.27-1.1-6.05c0,0-1.04-1.54-1.79-2.13
		c0.64-0.56,1.74-1.14,2.19-1.89c1.1-1.85,0.76-10.23,0.76-10.23c0-5.81-2.81-9.58-8.97-9.46l-12.63,0.21c-0.09,0-0.15,0-0.16,0
		c-1.67,0.03-3.27-0.07-4.49,1.06c-1.21,1.14-1.15,2.72-1.15,4.33l-0.03,33.53c-0.02,0.11-0.03,0.21,0,0.27
		c-0.03,3.36-0.05,5.19,2.98,5.15l0.08,0c1.15-0.03,4.38-0.14,6.43-0.18c1.9-0.04,2.37-0.64,2.36-2.27l0.01-13.79l1.47-0.01
		C127.29,36.24,127.59,36.51,127.88,36.76z"/>
	<path class="st3" d="M141.83,74.95c-0.39,0.45-0.87,0.75-2.09,0.8c-0.11,0-0.21,0-0.3,0l-1.7-0.05v-7.62l1.93,0.06
		c1.1,0.05,1.62,0.32,2.06,0.81c0.43,0.51,0.83,1.52,0.83,3.28C142.55,73.6,142.22,74.49,141.83,74.95z M142.81,58.85l-10.39-0.23
		c-0.09,0-3.43-0.07-4.64,1.06c-1.21,1.14-1.15,2.97-1.14,4.59l0.01,35.86c0,2.31,2.5,3.03,6.19,2.96c2.89-0.06,5.6-0.31,5.6-3.14
		V86.82l3.85-0.17c0.25,0.01,1.95-0.02,2.21-0.02c5.65-0.11,9.48-0.85,9.48-8.61c0,0-0.12-7.92-0.12-10.5
		C153.86,59.88,148,58.75,142.81,58.85z"/>
	<path class="st3" d="M220.84,65.46c0.01-0.99-0.12-3.02-0.02-3.51c0-1.33-0.2-2.58-2.56-2.53c-5.67-0.03-21.87-0.12-22-0.12
		c-1.63,0.03-3.1-0.25-4.16,0.74c-1.07,0.98-0.77,2.82-0.76,4.05c-0.01,1.3,0.14,3.28,1.91,3.33l6.54,0.06v34.12
		c-0.01,3.34,1.34,3.81,4.35,3.86c0.12,0,2.15,0.11,2.27,0.1c0.91,0.03,4.09,0.34,5.16-0.63c1.08-0.97,0.97-1.99,0.96-3.56V67.71
		c0,0,3.75,0.1,6.07-0.05C220.73,67.67,220.85,66.69,220.84,65.46z"/>
	<path class="st3" d="M84.61,51.41c0.42,0.53,1.3,0.97,1.96,0.97l16.55-0.1c0.66,0,1.58-0.42,2.04-0.93l2.42-2.74
		c0.45-0.51,0.83-1.5,0.83-2.19l0.05-32.2c-0.01-0.03-0.02-0.87-0.02-0.87c0.01-1.47-0.14-3.34-1.15-4.21
		c-1.01-0.88-2.33-0.85-3.7-0.82c-0.04,0-2.9,0.05-2.95,0.06l0.97-0.02c-2.64,0.08-4.18,0.97-4.32,3.85l0.01,2.49l0.02,22.25
		l-0.04,3.11c0,1.49-0.95,2.71-2.12,2.73c-1.17,0.02-2.12-1.17-2.12-2.65l-0.04-3.16l0.03-24.33c0,0,0-0.1,0-0.1v-0.18
		c-0.14-2.88-1.69-3.72-4.32-3.7l0.97-0.02c-0.05,0-2.57,0.05-2.59,0.05c-1.39,0.03-3.01,0.05-4.01,0.97
		c-1.01,0.91-1.16,2.78-1.15,4.25l-0.09,32.72c0,0.69,0.34,1.7,0.76,2.23L84.61,51.41z"/>
	<path class="st3" d="M121.5,87.15c-0.01-2.3-0.16-4.27-1.1-6.06c0,0-1.04-1.54-1.79-2.14c0.64-0.56,1.74-1.14,2.19-1.9
		c0,0,0.7-0.95,0.7-4.85c0-0.02,0.01-11.61,0.01-11.61c0.01-1.63-0.46-2.22-2.36-2.19c0,0-6.36-0.04-6.65-0.02
		c-1.24,0.02-2.62,0.69-2.6,3.73c-0.02,0.07,0.01,9.73,0.01,9.73c-0.06,1.06-0.32,1.5-0.59,1.76c-0.28,0.26-0.59,0.55-1.86,0.59
		L106,74.24l-0.02-13.75c0.01-1.63-0.46-2.22-2.36-2.19l-5.51-0.16c-1.27,0.08-2.38,0.28-2.79,0.66c-1.21,1.14-1.15,2.73-1.14,4.35
		l-0.04,32.98c-0.02,0.11-0.03,0.36,0,0.41c-0.03,3.38-0.05,5.31,2.98,5.26l0.08,0c1.15-0.03,4.38,0.1,6.42,0.06
		c1.89-0.04,2.37-0.64,2.36-2.28L106,85.7l1.46-0.01c1.27-0.01,1.58,0.27,1.86,0.52c0.28,0.25,0.54,0.68,0.59,1.74
		c0,0-0.03,10.47-0.01,10.54c-0.03,3.05,1.36,3.95,2.6,3.92c0.28,0.01,6.65-0.09,6.65-0.09c1.9-0.04,2.37-0.64,2.36-2.28l0.01-14.27
		C121.52,85.78,121.5,87.17,121.5,87.15z"/>
	<path class="st3" d="M50.41,70.72l-0.06,3.67l-4.28-0.24l-0.04-3.63c0-1.69-0.14-2.68,0.29-3.19c0.44-0.5,0.85-0.66,1.82-0.71
		c0,0,0.02,0,0.07,0c0.94,0.01,1.45,0.46,1.87,0.93C50.5,68.03,50.41,69.03,50.41,70.72z M60.45,94.9l-0.04-29.87
		c0.01-3.05-0.35-7.19-5.48-7.09c-0.01,0-0.07,0-0.16,0.01l-13.74-0.21c-0.09,0-0.15,0-0.16,0c-4.95,0.09-5.64,3.56-5.63,6.26
		l-0.03,30.82c-0.02,0.11-0.03,0.21,0,0.27c-0.03,3.38-0.1,4.84,2.93,4.79l0.08,0c1.15-0.03,2.97,0.17,5.01,0.13
		c1.89-0.03,2.37-0.64,2.36-2.28l-0.04-9.34c0-1.69-0.14-2.68,0.29-3.19c0.43-0.5,0.84-0.76,1.81-0.81h0.07
		c0.94,0,1.45,0.22,1.87,0.69c0.42,0.48,0.33,1.48,0.33,3.17l-0.06,9.81c-0.01,1.63,0.47,2.16,2.36,2.23
		c1.8,0.07,5.16,0.15,5.16,0.15l0.08,0c3.03-0.06,3.01-1.9,2.98-5.27C60.48,95.1,60.48,95.01,60.45,94.9z"/>
	<path class="st3" d="M31.4,60.19c0.01-3.25-1.65-2.78-4.56-2.83c-0.11-0.01-1.46,0.02-1.53,0.02c-1.41,0.03-2.49-0.43-3.53,0.52
		c-1.05,0.94-0.96,2.11-0.95,3.63v26.28c0.02,1.17-0.03,1.75-0.1,1.81c-0.06,0.03-0.08,0.52-0.64,0.57c-0.06,0-2.36,0.05-2.41,0.04
		c-0.69,0.02-0.45-0.45-0.5-0.68c-0.12-0.16,0.35-2.87-0.62-4.21c-0.73-0.94-1.96-1.12-3.74-1.14l-4.98,0.09
		c-0.72,0.01-1.3,0.58-1.29,1.27l0.02,7.43c0,0.7,0.36,1.71,0.79,2.26l2.61,3.3c0.43,0.54,1.37,0.98,2.09,0.97l9.14-0.19
		c3.45-0.07,6.07,0.55,8.15-1.37c2.09-1.92,2.08-4.71,2.07-7.92V60.19z"/>
	<path class="st3" d="M77.78,66.8c1.15-0.02,2.09,1.1,2.09,2.52v4.91c0.1,1.48,0.64,3.22,2.88,3.18l4.76-0.08
		c2.23-0.04,2.73-1.8,2.83-3.29l0.03-10.65c0-0.66-0.33-1.62-0.73-2.13L87.89,59c-0.4-0.51-1.27-0.92-1.92-0.91L68.91,58
		c-0.65,0.02-1.54,0.44-1.96,0.95L65,61.27c-0.43,0.51-0.77,1.46-0.77,2.12v32.19c0,0.66,0.33,1.61,0.75,2.12l1.97,2.43
		c0.41,0.51,1.28,0.92,1.93,0.92l16.29,0.42c0.66,0,1.56-0.4,2.01-0.89l2.38-2.6c0.45-0.49,0.81-1.43,0.81-2.09l-0.1-10.75
		c-0.1-1.48-0.64-3.22-2.88-3.18l-4.61,0.1c-2.23,0.04-2.78,1.8-2.88,3.29l-0.03,3.81c0,1.41-0.94,2.58-2.09,2.6
		c-1.16,0.02-2.09-1.11-2.09-2.52V69.4C75.69,67.98,76.62,66.82,77.78,66.8z"/>
</g>
</svg>
