<?xml version="1.0" encoding="UTF-8" standalone="no"?><!DOCTYPE svg PUBLIC "-//W3C//DTD SVG 1.1//EN" "http://www.w3.org/Graphics/SVG/1.1/DTD/svg11.dtd"><svg width="100%" height="100%" viewBox="0 0 179 188" version="1.1" xmlns="http://www.w3.org/2000/svg" xmlns:xlink="http://www.w3.org/1999/xlink" xml:space="preserve" style="fill-rule:evenodd;clip-rule:evenodd;stroke-linejoin:round;stroke-miterlimit:1.41421;"><g><path d="M147.361,101.959c3.171,-3.711 4.903,-8.17 5.007,-12.884c0.042,-1.705 -0.053,-3.367 -0.277,-4.978l26.333,-32.773l-61.348,0.128l-22.766,-51.452l-30.744,51.5l-63.566,0.366l17.499,26.365l0.854,4.364c2.775,14.168 5.55,28.34 8.323,42.512l1.027,5.245l0.461,2.504l-15.579,54.837l74.509,-51.976l65.546,31.38l-14.453,-59.07c3.566,-1.215 6.855,-3.358 9.174,-6.068Z" style="fill:#fff;fill-rule:nonzero;"/><path d="M114.01,57.065l53.772,-0.113l-36.211,45.063l13.672,55.872l-58.284,-27.903l-64.939,45.303l19.82,-70.108l-31.706,-47.764l56.79,-0.326l27.047,-45.31l20.039,45.286Z" style="fill:#fd0;fill-rule:nonzero;"/></g><clipPath id="_clip1"><path d="M69.047,60.802l-51.995,0.3l28.839,43.445l-17.452,61.716l58.171,-40.578l53.145,25.444l-12.237,-50.014l32.478,-40.421l-48.411,0.103l-18.106,-40.927l-24.432,40.932Z"/></clipPath><g clip-path="url(#_clip1)"><rect x="17.052" y="19.87" width="142.944" height="146.393" style="fill:url(#_Radial2);"/></g><g><path d="M82.077,104.628c-0.208,1.166 -0.545,2.309 -1.034,3.403c-2.344,5.264 -7.118,8.683 -12.764,9.654c-4.284,0.741 -8.347,-0.187 -11.858,-2.68c0.06,0.327 0.121,0.651 0.187,0.979c0.201,1.051 0.403,2.105 0.603,3.157c-8.336,1.765 -16.673,3.531 -25.009,5.293c-2.772,-14.169 -5.549,-28.34 -8.323,-42.51c5.564,-1.292 11.128,-2.585 16.694,-3.878c1.162,5.917 2.356,11.83 3.491,17.75l2.291,11.969l3.489,-0.591c-0.266,-0.851 -0.785,-3.643 -1.053,-4.922c-1.004,-4.793 -0.314,-10.255 2.629,-14.259c2.633,-3.58 6.047,-5.242 10.289,-6.131c3.57,-0.748 7.057,-0.424 10.405,1.041c1.003,0.436 1.911,0.961 2.732,1.559l-0.26,-1.328l-0.585,-3.265l2.885,-0.512l-0.83,-5.25c5.279,-2.516 10.263,-4.898 15.542,-7.413l0.984,4.906l17.033,-8.689l1.697,9.119l3.687,-0.712c0.315,1.689 0.661,3.896 0.976,5.584c0.219,-0.367 0.768,-1.492 0.986,-1.858c3.283,-4.38 8.449,-6.948 13.99,-6.811c4.922,0.126 8.933,1.872 12.249,5.982c3.262,4.045 4.803,9.259 4.67,14.75c-0.087,3.91 -1.573,7.312 -3.93,10.071c-2.403,2.807 -6.117,4.777 -9.753,5.392c-3.199,0.541 -5.972,0.456 -8.858,-0.526c-0.484,-0.161 -1.339,-0.553 -1.826,-0.766c-0.342,0.287 -1.058,0.87 -1.403,1.196c-1.584,1.319 -2.88,2.193 -4.365,2.88c-2.892,1.337 -5.806,1.664 -8.929,1.053c-1.188,-0.234 -2.27,-0.609 -3.349,-1.201c-0.882,0.869 -1.532,1.369 -2.339,2.018c-1.094,0.884 -2.257,1.52 -3.504,2.033c-1.23,0.501 -2.415,0.836 -3.589,1.024c-5.464,0.868 -9.728,-0.888 -12.754,-5.216c-0.362,-0.645 -0.728,-1.29 -1.092,-1.934c-0.034,-0.122 -0.067,-0.242 -0.102,-0.361" style="fill:#0095db;fill-rule:nonzero;"/><path d="M117.952,89.499c-1.045,-4.302 -0.808,-8.918 1.817,-12.49c2.192,-2.984 5.018,-4.171 8.319,-4.863c2.892,-0.607 5.68,-0.362 8.422,0.834c4.69,2.051 6.744,6.61 7.778,11.335c0.747,3.401 0.683,6.727 -0.531,9.457c-1.78,3.991 -5.434,6.916 -10.328,7.757c-3.644,0.63 -6.869,-0.254 -9.601,-2.265c-3.355,-2.467 -4.932,-5.883 -5.876,-9.765m-83.173,31.04l-7.075,-36.14l10.306,-2.391l5.803,29.498c2.769,-0.515 5.533,-1.03 8.302,-1.544l1.273,6.638l-18.609,3.939Zm17.466,-18.114c-1.048,-4.305 -0.807,-8.92 1.818,-12.491c2.194,-2.984 5.013,-4.171 8.318,-4.865c2.891,-0.605 5.68,-0.361 8.419,0.836c4.694,2.049 6.746,6.61 7.782,11.334c0.744,3.404 0.685,6.729 -0.533,9.459c-1.778,3.989 -5.437,6.913 -10.328,7.757c-3.644,0.629 -6.869,-0.255 -9.601,-2.267c-3.355,-2.465 -4.929,-5.882 -5.875,-9.763m9.749,-9.873c-0.673,1.276 -0.585,2.615 -0.5,4.264c0.125,0.76 0.249,1.522 0.371,2.284c0.121,0.728 0.257,1.435 0.403,2.158c0.201,0.998 0.422,2.07 0.782,3.052c0.625,1.714 1.825,3.852 3.952,3.447c1.151,-0.219 1.928,-1.063 2.203,-2.288c0.384,-1.71 -0.047,-3.653 -0.327,-5.357c-0.13,-0.803 -0.268,-1.563 -0.454,-2.357c-0.574,-2.412 -1.403,-5.107 -2.829,-6.2c-0.689,-0.527 -1.223,-0.432 -1.733,-0.371c-0.746,0.094 -1.383,0.444 -1.868,1.368m16.321,-10.547l2.704,-0.548l-1.06,-5.571l9.698,-4.638l1.441,8.229l3.371,-0.677l1.265,6.882l-3.321,0.667l1.953,10.51c0.201,0.931 0.383,1.761 0.634,2.619c0.284,0.975 0.821,1.81 1.917,2.036c0.743,0.152 1.518,-0.175 2.476,-0.817l1.242,6.081c-1.825,1.036 -3.074,1.639 -4.674,1.958c-2.802,0.557 -5.281,0.215 -7.324,-1.18c-2.687,-1.836 -3.48,-4.433 -4.066,-7.348l-2.236,-12.037l-2.723,0.507l-1.297,-6.673Zm18.205,-3.589l2.705,-0.546l-1.108,-5.668l9.696,-4.64l1.491,8.422l3.375,-0.678l1.252,6.837l-3.323,0.666l1.918,10.364c0.198,0.933 0.379,1.763 0.629,2.62c0.288,0.976 0.823,1.809 1.918,2.035c0.743,0.152 1.518,-0.173 2.474,-0.815l1.246,6.08c-1.826,1.037 -3.071,1.638 -4.674,1.956c-2.804,0.559 -5.282,0.219 -7.326,-1.177c-2.687,-1.837 -3.478,-4.436 -4.065,-7.348l-2.187,-11.798l-2.721,0.507l-1.3,-6.817Zm31.18,1.211c-0.674,1.275 -0.585,2.617 -0.499,4.262c0.123,0.761 0.249,1.524 0.371,2.286c0.12,0.729 0.257,1.436 0.403,2.16c0.201,0.996 0.421,2.067 0.782,3.051c0.625,1.712 1.822,3.849 3.952,3.446c1.151,-0.22 1.93,-1.063 2.204,-2.29c0.384,-1.708 -0.048,-3.649 -0.327,-5.354c-0.128,-0.806 -0.266,-1.565 -0.455,-2.356c-0.574,-2.413 -1.402,-5.107 -2.833,-6.203c-0.687,-0.526 -1.216,-0.431 -1.728,-0.368c-0.747,0.093 -1.382,0.443 -1.87,1.366" style="fill:#fff;fill-rule:nonzero;"/></g><defs><radialGradient id="_Radial2" cx="0" cy="0" r="1" gradientUnits="userSpaceOnUse" gradientTransform="matrix(72.3394,0,0,-72.3394,88.5218,93.066)"><stop offset="0" style="stop-color:#fff9c7;stop-opacity:1"/><stop offset="0.1" style="stop-color:#fff4b4;stop-opacity:1"/><stop offset="0.3" style="stop-color:#fee783;stop-opacity:1"/><stop offset="0.57" style="stop-color:#fed135;stop-opacity:1"/><stop offset="0.75" style="stop-color:#fdc300;stop-opacity:1"/><stop offset="1" style="stop-color:#fbba00;stop-opacity:1"/></radialGradient></defs></svg>